<svg width="70" height="64" viewBox="0 0 70 64" fill="none" xmlns="http://www.w3.org/2000/svg">
<rect width="70" height="64" fill="white" fill-opacity="0.3"/>
<path d="M41.5 31C42.8807 31 44 29.8807 44 28.5C44 27.1193 42.8807 26 41.5 26C40.1193 26 39 27.1193 39 28.5C39 29.8807 40.1193 31 41.5 31Z" stroke="white" stroke-width="2" stroke-linecap="round" stroke-linejoin="round"/>
<path d="M28.5 31C29.8807 31 31 29.8807 31 28.5C31 27.1193 29.8807 26 28.5 26C27.1193 26 26 27.1193 26 28.5C26 29.8807 27.1193 31 28.5 31Z" stroke="white" stroke-width="2" stroke-linecap="round" stroke-linejoin="round"/>
<path d="M39 18H43L46 21V26H39V18Z" stroke="white" stroke-width="2" stroke-linecap="round" stroke-linejoin="round"/>
<path d="M39 13H24V26H39V13Z" stroke="white" stroke-width="2" stroke-linecap="round" stroke-linejoin="round"/>
<path d="M26.5346 50.144C25.9666 50.144 25.4546 50.056 24.9986 49.88C24.5426 49.696 24.1546 49.428 23.8346 49.076C23.5146 48.716 23.2666 48.272 23.0906 47.744C22.9146 47.208 22.8266 46.584 22.8266 45.872C22.8266 45.168 22.9146 44.544 23.0906 44C23.2666 43.448 23.5146 42.988 23.8346 42.62C24.1546 42.244 24.5426 41.96 24.9986 41.768C25.4546 41.576 25.9666 41.48 26.5346 41.48C27.3106 41.48 27.9506 41.64 28.4546 41.96C28.9586 42.272 29.3626 42.768 29.6666 43.448L28.0946 44.264C27.9826 43.912 27.8066 43.632 27.5666 43.424C27.3346 43.208 26.9906 43.1 26.5346 43.1C25.9986 43.1 25.5666 43.276 25.2386 43.628C24.9186 43.972 24.7586 44.476 24.7586 45.14V46.484C24.7586 47.148 24.9186 47.656 25.2386 48.008C25.5666 48.352 25.9986 48.524 26.5346 48.524C26.9826 48.524 27.3386 48.404 27.6026 48.164C27.8746 47.916 28.0746 47.62 28.2026 47.276L29.6906 48.14C29.3786 48.78 28.9666 49.276 28.4546 49.628C27.9506 49.972 27.3106 50.144 26.5346 50.144ZM35.527 50C35.207 50 34.939 49.9 34.723 49.7C34.515 49.5 34.383 49.232 34.327 48.896H34.255C34.159 49.304 33.947 49.616 33.619 49.832C33.291 50.04 32.887 50.144 32.407 50.144C31.775 50.144 31.291 49.976 30.955 49.64C30.619 49.304 30.451 48.86 30.451 48.308C30.451 47.644 30.691 47.152 31.171 46.832C31.659 46.504 32.319 46.34 33.151 46.34H34.147V45.944C34.147 45.64 34.067 45.4 33.907 45.224C33.747 45.04 33.479 44.948 33.103 44.948C32.751 44.948 32.471 45.024 32.263 45.176C32.055 45.328 31.883 45.5 31.747 45.692L30.691 44.756C30.947 44.38 31.267 44.088 31.651 43.88C32.043 43.664 32.571 43.556 33.235 43.556C34.131 43.556 34.803 43.752 35.251 44.144C35.699 44.536 35.923 45.108 35.923 45.86V48.62H36.511V50H35.527ZM33.067 48.908C33.363 48.908 33.615 48.844 33.823 48.716C34.039 48.588 34.147 48.38 34.147 48.092V47.348H33.283C32.587 47.348 32.239 47.584 32.239 48.056V48.236C32.239 48.468 32.311 48.64 32.455 48.752C32.599 48.856 32.803 48.908 33.067 48.908ZM37.703 50V43.7H39.479V45.068H39.539C39.571 44.892 39.627 44.724 39.707 44.564C39.787 44.396 39.891 44.248 40.019 44.12C40.155 43.992 40.315 43.892 40.499 43.82C40.683 43.74 40.899 43.7 41.147 43.7H41.459V45.356H41.015C40.495 45.356 40.107 45.424 39.851 45.56C39.603 45.696 39.479 45.948 39.479 46.316V50H37.703ZM44.6906 50.144C44.0826 50.144 43.5706 50.048 43.1546 49.856C42.7386 49.656 42.3666 49.376 42.0386 49.016L43.0826 47.96C43.3066 48.208 43.5546 48.404 43.8266 48.548C44.0986 48.692 44.4066 48.764 44.7506 48.764C45.1026 48.764 45.3466 48.712 45.4826 48.608C45.6186 48.496 45.6866 48.348 45.6866 48.164C45.6866 47.868 45.4746 47.692 45.0506 47.636L44.3666 47.552C42.9506 47.376 42.2426 46.728 42.2426 45.608C42.2426 45.304 42.2986 45.028 42.4106 44.78C42.5306 44.524 42.6946 44.308 42.9026 44.132C43.1186 43.948 43.3746 43.808 43.6706 43.712C43.9746 43.608 44.3146 43.556 44.6906 43.556C45.0186 43.556 45.3066 43.58 45.5546 43.628C45.8106 43.668 46.0346 43.732 46.2266 43.82C46.4266 43.9 46.6066 44.004 46.7666 44.132C46.9346 44.252 47.0986 44.388 47.2586 44.54L46.2386 45.584C46.0386 45.384 45.8106 45.228 45.5546 45.116C45.3066 44.996 45.0506 44.936 44.7866 44.936C44.4826 44.936 44.2666 44.984 44.1386 45.08C44.0106 45.176 43.9466 45.304 43.9466 45.464C43.9466 45.632 43.9906 45.764 44.0786 45.86C44.1746 45.948 44.3506 46.012 44.6066 46.052L45.3146 46.148C46.6986 46.332 47.3906 46.964 47.3906 48.044C47.3906 48.348 47.3266 48.628 47.1986 48.884C47.0706 49.14 46.8866 49.364 46.6466 49.556C46.4146 49.74 46.1306 49.884 45.7946 49.988C45.4666 50.092 45.0986 50.144 44.6906 50.144Z" fill="white"/>
</svg>
