<svg width="70" height="64" viewBox="0 0 70 64" fill="none" xmlns="http://www.w3.org/2000/svg">
<path d="M26 19L35 12L44 19V30C44 30.5304 43.7893 31.0391 43.4142 31.4142C43.0391 31.7893 42.5304 32 42 32H28C27.4696 32 26.9609 31.7893 26.5858 31.4142C26.2107 31.0391 26 30.5304 26 30V19Z" stroke="white" stroke-width="2" stroke-linecap="round" stroke-linejoin="round"/>
<path d="M32 32V22H38V32" stroke="white" stroke-width="2" stroke-linecap="round" stroke-linejoin="round"/>
<path d="M7.313 41.624H9.977C11.057 41.624 11.889 41.972 12.473 42.668C13.065 43.364 13.361 44.412 13.361 45.812C13.361 47.212 13.065 48.26 12.473 48.956C11.889 49.652 11.057 50 9.977 50H7.313V41.624ZM9.989 49.364C10.813 49.364 11.453 49.1 11.909 48.572C12.365 48.036 12.593 47.3 12.593 46.364V45.26C12.593 44.324 12.365 43.592 11.909 43.064C11.453 42.528 10.813 42.26 9.989 42.26H8.033V49.364H9.989ZM19.4572 50C19.1932 50 19.0012 49.932 18.8812 49.796C18.7612 49.66 18.6932 49.476 18.6772 49.244V49.028H18.6172C18.4812 49.372 18.2572 49.644 17.9452 49.844C17.6332 50.044 17.2372 50.144 16.7572 50.144C16.1092 50.144 15.6092 49.988 15.2572 49.676C14.9052 49.356 14.7292 48.908 14.7292 48.332C14.7292 47.788 14.9212 47.356 15.3052 47.036C15.6972 46.716 16.3372 46.556 17.2252 46.556H18.6412V45.836C18.6412 44.82 18.1172 44.312 17.0692 44.312C16.6612 44.312 16.3212 44.4 16.0492 44.576C15.7772 44.744 15.5572 44.988 15.3892 45.308L14.9572 44.948C15.1252 44.588 15.3812 44.292 15.7252 44.06C16.0772 43.828 16.5332 43.712 17.0932 43.712C17.8132 43.712 18.3652 43.892 18.7492 44.252C19.1332 44.612 19.3252 45.116 19.3252 45.764V49.4H20.1532V50H19.4572ZM16.8532 49.556C17.1012 49.556 17.3332 49.524 17.5492 49.46C17.7652 49.396 17.9532 49.308 18.1132 49.196C18.2812 49.076 18.4092 48.936 18.4972 48.776C18.5932 48.608 18.6412 48.42 18.6412 48.212V47.072H17.2012C16.5852 47.072 16.1372 47.172 15.8572 47.372C15.5852 47.564 15.4492 47.832 15.4492 48.176V48.464C15.4492 48.824 15.5772 49.096 15.8332 49.28C16.0892 49.464 16.4292 49.556 16.8532 49.556ZM23.3013 50.144C22.7653 50.144 22.3053 50.044 21.9213 49.844C21.5453 49.644 21.2173 49.352 20.9373 48.968L21.4413 48.572C21.6973 48.908 21.9773 49.156 22.2813 49.316C22.5853 49.476 22.9413 49.556 23.3493 49.556C23.8213 49.556 24.1853 49.456 24.4413 49.256C24.6973 49.056 24.8253 48.768 24.8253 48.392C24.8253 48.064 24.7253 47.808 24.5253 47.624C24.3333 47.432 24.0133 47.304 23.5653 47.24L23.0613 47.156C22.7813 47.116 22.5253 47.056 22.2933 46.976C22.0613 46.896 21.8613 46.788 21.6933 46.652C21.5333 46.516 21.4053 46.352 21.3093 46.16C21.2213 45.96 21.1773 45.72 21.1773 45.44C21.1773 45.152 21.2293 44.9 21.3333 44.684C21.4453 44.468 21.5933 44.288 21.7773 44.144C21.9613 44 22.1813 43.892 22.4373 43.82C22.6933 43.748 22.9693 43.712 23.2653 43.712C23.7773 43.712 24.1973 43.8 24.5253 43.976C24.8533 44.152 25.1333 44.38 25.3653 44.66L24.9093 45.08C24.7493 44.888 24.5333 44.712 24.2613 44.552C23.9973 44.384 23.6533 44.3 23.2293 44.3C22.7893 44.3 22.4453 44.396 22.1973 44.588C21.9573 44.78 21.8373 45.052 21.8373 45.404C21.8373 45.764 21.9453 46.024 22.1613 46.184C22.3853 46.344 22.7173 46.46 23.1573 46.532L23.6493 46.604C24.2733 46.7 24.7333 46.888 25.0293 47.168C25.3333 47.44 25.4853 47.824 25.4853 48.32C25.4853 48.896 25.2893 49.344 24.8973 49.664C24.5133 49.984 23.9813 50.144 23.3013 50.144ZM27.2801 41.12H27.9641V44.828H28.0001C28.1361 44.508 28.3481 44.244 28.6361 44.036C28.9241 43.82 29.3161 43.712 29.8121 43.712C30.4681 43.712 30.9761 43.916 31.3361 44.324C31.7041 44.724 31.8881 45.3 31.8881 46.052V50H31.2041V46.172C31.2041 45.548 31.0681 45.084 30.7961 44.78C30.5321 44.476 30.1441 44.324 29.6321 44.324C29.4161 44.324 29.2081 44.352 29.0081 44.408C28.8081 44.464 28.6281 44.548 28.4681 44.66C28.3161 44.772 28.1921 44.916 28.0961 45.092C28.0081 45.26 27.9641 45.456 27.9641 45.68V50H27.2801V41.12ZM34.0418 41.12H34.7258V44.84H34.7618C34.9138 44.496 35.1458 44.224 35.4578 44.024C35.7698 43.816 36.1618 43.712 36.6338 43.712C37.4258 43.712 38.0458 43.992 38.4938 44.552C38.9418 45.112 39.1658 45.904 39.1658 46.928C39.1658 47.952 38.9418 48.744 38.4938 49.304C38.0458 49.864 37.4258 50.144 36.6338 50.144C36.1618 50.144 35.7738 50.044 35.4698 49.844C35.1658 49.636 34.9298 49.36 34.7618 49.016H34.7258V50H34.0418V41.12ZM36.4778 49.532C37.0938 49.532 37.5738 49.336 37.9178 48.944C38.2618 48.552 38.4338 48.024 38.4338 47.36V46.496C38.4338 45.832 38.2618 45.304 37.9178 44.912C37.5738 44.52 37.0938 44.324 36.4778 44.324C36.2378 44.324 36.0098 44.36 35.7938 44.432C35.5858 44.496 35.4018 44.588 35.2418 44.708C35.0818 44.828 34.9538 44.972 34.8578 45.14C34.7698 45.308 34.7258 45.492 34.7258 45.692V48.128C34.7258 48.344 34.7698 48.54 34.8578 48.716C34.9538 48.884 35.0818 49.032 35.2418 49.16C35.4018 49.28 35.5858 49.372 35.7938 49.436C36.0098 49.5 36.2378 49.532 36.4778 49.532ZM43.1164 50.144C42.7084 50.144 42.3404 50.072 42.0124 49.928C41.6844 49.784 41.4044 49.576 41.1724 49.304C40.9404 49.024 40.7604 48.684 40.6324 48.284C40.5044 47.884 40.4404 47.432 40.4404 46.928C40.4404 46.424 40.5044 45.976 40.6324 45.584C40.7604 45.184 40.9404 44.848 41.1724 44.576C41.4044 44.296 41.6844 44.084 42.0124 43.94C42.3404 43.788 42.7084 43.712 43.1164 43.712C43.5244 43.712 43.8924 43.788 44.2204 43.94C44.5484 44.084 44.8284 44.296 45.0604 44.576C45.2924 44.848 45.4724 45.184 45.6004 45.584C45.7284 45.976 45.7924 46.424 45.7924 46.928C45.7924 47.432 45.7284 47.884 45.6004 48.284C45.4724 48.684 45.2924 49.024 45.0604 49.304C44.8284 49.576 44.5484 49.784 44.2204 49.928C43.8924 50.072 43.5244 50.144 43.1164 50.144ZM43.1164 49.532C43.7164 49.532 44.1884 49.344 44.5324 48.968C44.8844 48.592 45.0604 48.04 45.0604 47.312V46.544C45.0604 45.824 44.8844 45.276 44.5324 44.9C44.1884 44.516 43.7164 44.324 43.1164 44.324C42.5164 44.324 42.0404 44.512 41.6884 44.888C41.3444 45.264 41.1724 45.816 41.1724 46.544V47.312C41.1724 48.032 41.3444 48.584 41.6884 48.968C42.0404 49.344 42.5164 49.532 43.1164 49.532ZM51.7541 50C51.4901 50 51.2981 49.932 51.1781 49.796C51.0581 49.66 50.9901 49.476 50.9741 49.244V49.028H50.9141C50.7781 49.372 50.5541 49.644 50.2421 49.844C49.9301 50.044 49.5341 50.144 49.0541 50.144C48.4061 50.144 47.9061 49.988 47.5541 49.676C47.2021 49.356 47.0261 48.908 47.0261 48.332C47.0261 47.788 47.2181 47.356 47.6021 47.036C47.9941 46.716 48.6341 46.556 49.5221 46.556H50.9381V45.836C50.9381 44.82 50.4141 44.312 49.3661 44.312C48.9581 44.312 48.6181 44.4 48.3461 44.576C48.0741 44.744 47.8541 44.988 47.6861 45.308L47.2541 44.948C47.4221 44.588 47.6781 44.292 48.0221 44.06C48.3741 43.828 48.8301 43.712 49.3901 43.712C50.1101 43.712 50.6621 43.892 51.0461 44.252C51.4301 44.612 51.6221 45.116 51.6221 45.764V49.4H52.4501V50H51.7541ZM49.1501 49.556C49.3981 49.556 49.6301 49.524 49.8461 49.46C50.0621 49.396 50.2501 49.308 50.4101 49.196C50.5781 49.076 50.7061 48.936 50.7941 48.776C50.8901 48.608 50.9381 48.42 50.9381 48.212V47.072H49.4981C48.8821 47.072 48.4341 47.172 48.1541 47.372C47.8821 47.564 47.7461 47.832 47.7461 48.176V48.464C47.7461 48.824 47.8741 49.096 48.1301 49.28C48.3861 49.464 48.7261 49.556 49.1501 49.556ZM53.8582 50V43.856H54.5422V44.96H54.5902C54.7102 44.672 54.9142 44.416 55.2022 44.192C55.4902 43.968 55.8982 43.856 56.4262 43.856H56.8342V44.528H56.2942C55.7822 44.528 55.3622 44.64 55.0342 44.864C54.7062 45.088 54.5422 45.4 54.5422 45.8V50H53.8582ZM62.0724 49.016H62.0364C61.8764 49.36 61.6404 49.636 61.3284 49.844C61.0244 50.044 60.6364 50.144 60.1644 50.144C59.3724 50.144 58.7524 49.864 58.3044 49.304C57.8564 48.744 57.6324 47.952 57.6324 46.928C57.6324 45.904 57.8564 45.112 58.3044 44.552C58.7524 43.992 59.3724 43.712 60.1644 43.712C60.6364 43.712 61.0284 43.816 61.3404 44.024C61.6524 44.224 61.8844 44.496 62.0364 44.84H62.0724V41.12H62.7564V50H62.0724V49.016ZM60.3204 49.532C60.5604 49.532 60.7844 49.5 60.9924 49.436C61.2084 49.372 61.3964 49.28 61.5564 49.16C61.7164 49.032 61.8404 48.884 61.9284 48.716C62.0244 48.54 62.0724 48.344 62.0724 48.128V45.692C62.0724 45.492 62.0244 45.308 61.9284 45.14C61.8404 44.972 61.7164 44.828 61.5564 44.708C61.3964 44.588 61.2084 44.496 60.9924 44.432C60.7844 44.36 60.5604 44.324 60.3204 44.324C59.7044 44.324 59.2244 44.52 58.8804 44.912C58.5364 45.304 58.3644 45.832 58.3644 46.496V47.36C58.3644 48.024 58.5364 48.552 58.8804 48.944C59.2244 49.336 59.7044 49.532 60.3204 49.532Z" fill="white"/>
</svg>
